# xmcd
#
# Track frame offsets: 
#        150
#        15777
#        32462
#        51015
#        64560
#        84520
#        98827
#        114100
#        130255
#        144830
#        182750
#
# Disc length: 2473 seconds
#
# Revision: 0
# Processed by: cddbd v1.4PL0 Copyright (c) Steve Scherf et al.
# Submitted via: ExactAudioCopy v0.90b4
#
DISCID=7709a70b
DTITLE=The Hodads - The Hodads
DYEAR=1900
DGENRE=Satire
TTITLE0=Words
TTITLE1=Storm
TTITLE2=Top
TTITLE3=Kiss
TTITLE4=Feelings
TTITLE5=Shivers
TTITLE6=Walk
TTITLE7=Thieves
TTITLE8=Havent
TTITLE9=Alive
TTITLE10=Venus
EXTD=
EXTT0=
EXTT1=
EXTT2=
EXTT3=
EXTT4=
EXTT5=
EXTT6=
EXTT7=
EXTT8=
EXTT9=
EXTT10=
PLAYORDER=
